<mxfile host="app.diagrams.net" modified="2020-11-28T16:39:51.900Z" agent="5.0 (Windows NT 10.0; Win64; x64) AppleWebKit/537.36 (KHTML, like Gecko) Chrome/87.0.4280.67 Safari/537.36 Edg/87.0.664.47" etag="chohY9z4DGkKz6nkgKcb" version="13.10.4" type="github">
  <diagram id="pAxnybnyntUypfZyiMDC" name="Page-1">
    <mxGraphModel dx="1066" dy="83" grid="1" gridSize="10" guides="1" tooltips="1" connect="1" arrows="1" fold="1" page="1" pageScale="1" pageWidth="850" pageHeight="1100" background="#ffffff" math="0" shadow="0">
      <root>
        <mxCell id="0" />
        <mxCell id="1" parent="0" />
        <mxCell id="RD95_QjH9YQ41FcIWs7q-1" value="Quản lý&amp;nbsp;&lt;br&gt;cửa hàng" style="shape=umlActor;verticalLabelPosition=bottom;verticalAlign=top;html=1;" vertex="1" parent="1">
          <mxGeometry x="100" y="1200" width="30" height="80" as="geometry" />
        </mxCell>
        <mxCell id="RD95_QjH9YQ41FcIWs7q-2" value="" style="shape=umlLifeline;participant=umlBoundary;perimeter=lifelinePerimeter;whiteSpace=wrap;html=1;container=1;collapsible=0;recursiveResize=0;verticalAlign=top;spacingTop=36;outlineConnect=0;" vertex="1" parent="1">
          <mxGeometry x="300" y="1280" width="50" height="780" as="geometry" />
        </mxCell>
        <mxCell id="RD95_QjH9YQ41FcIWs7q-3" value="" style="shape=umlLifeline;participant=umlEntity;perimeter=lifelinePerimeter;whiteSpace=wrap;html=1;container=1;collapsible=0;recursiveResize=0;verticalAlign=top;spacingTop=36;outlineConnect=0;" vertex="1" parent="1">
          <mxGeometry x="720" y="1280" width="40" height="690" as="geometry" />
        </mxCell>
        <mxCell id="RD95_QjH9YQ41FcIWs7q-4" value="" style="shape=umlLifeline;participant=umlControl;perimeter=lifelinePerimeter;whiteSpace=wrap;html=1;container=1;collapsible=0;recursiveResize=0;verticalAlign=top;spacingTop=36;outlineConnect=0;" vertex="1" parent="1">
          <mxGeometry x="500" y="1280" width="40" height="720" as="geometry" />
        </mxCell>
        <mxCell id="RD95_QjH9YQ41FcIWs7q-7" value="" style="html=1;points=[];perimeter=orthogonalPerimeter;" vertex="1" parent="1">
          <mxGeometry x="110" y="1320" width="10" height="730" as="geometry" />
        </mxCell>
        <mxCell id="RD95_QjH9YQ41FcIWs7q-8" value="Màn hình thống kê" style="text;html=1;align=center;verticalAlign=middle;resizable=0;points=[];autosize=1;" vertex="1" parent="1">
          <mxGeometry x="260" y="1250" width="110" height="20" as="geometry" />
        </mxCell>
        <mxCell id="RD95_QjH9YQ41FcIWs7q-9" value="Controller thống kê" style="text;html=1;align=center;verticalAlign=middle;resizable=0;points=[];autosize=1;" vertex="1" parent="1">
          <mxGeometry x="450" y="1240" width="120" height="20" as="geometry" />
        </mxCell>
        <mxCell id="RD95_QjH9YQ41FcIWs7q-10" value="Model thống kê" style="text;html=1;align=center;verticalAlign=middle;resizable=0;points=[];autosize=1;" vertex="1" parent="1">
          <mxGeometry x="680" y="1240" width="100" height="20" as="geometry" />
        </mxCell>
        <mxCell id="RD95_QjH9YQ41FcIWs7q-11" value="&lt;font style=&quot;font-size: 14px&quot;&gt;1.Yêu cầu thống kê&lt;/font&gt;" style="html=1;verticalAlign=bottom;startArrow=circle;startFill=1;endArrow=open;startSize=6;endSize=8;" edge="1" parent="1" target="RD95_QjH9YQ41FcIWs7q-2">
          <mxGeometry width="80" relative="1" as="geometry">
            <mxPoint x="120" y="1360" as="sourcePoint" />
            <mxPoint x="200" y="1360" as="targetPoint" />
          </mxGeometry>
        </mxCell>
        <mxCell id="RD95_QjH9YQ41FcIWs7q-14" value="&lt;font style=&quot;font-size: 14px&quot;&gt;2.Xử lý yêu cầu thống kê&lt;/font&gt;" style="html=1;verticalAlign=bottom;startArrow=circle;startFill=1;endArrow=open;startSize=6;endSize=8;" edge="1" parent="1" target="RD95_QjH9YQ41FcIWs7q-4">
          <mxGeometry x="0.1028" y="10" width="80" relative="1" as="geometry">
            <mxPoint x="320" y="1429.5" as="sourcePoint" />
            <mxPoint x="400" y="1429.5" as="targetPoint" />
            <mxPoint y="1" as="offset" />
          </mxGeometry>
        </mxCell>
        <mxCell id="RD95_QjH9YQ41FcIWs7q-15" value="&lt;font style=&quot;font-size: 14px&quot;&gt;3.Xử lý yêu cầu thống kê&lt;/font&gt;" style="html=1;verticalAlign=bottom;startArrow=circle;startFill=1;endArrow=open;startSize=6;endSize=8;" edge="1" parent="1" target="RD95_QjH9YQ41FcIWs7q-3">
          <mxGeometry width="80" relative="1" as="geometry">
            <mxPoint x="520.5" y="1479.5" as="sourcePoint" />
            <mxPoint x="720" y="1479.5" as="targetPoint" />
          </mxGeometry>
        </mxCell>
        <mxCell id="RD95_QjH9YQ41FcIWs7q-18" value="&lt;font style=&quot;font-size: 14px&quot;&gt;4.Lấy dữ liệu thống kê&lt;/font&gt;" style="html=1;verticalAlign=bottom;endArrow=open;dashed=1;endSize=8;" edge="1" parent="1" source="RD95_QjH9YQ41FcIWs7q-3">
          <mxGeometry relative="1" as="geometry">
            <mxPoint x="600" y="1550" as="sourcePoint" />
            <mxPoint x="520" y="1550" as="targetPoint" />
          </mxGeometry>
        </mxCell>
        <mxCell id="RD95_QjH9YQ41FcIWs7q-19" value="&lt;font style=&quot;font-size: 14px&quot;&gt;4.Lấy dữ liệu thống kê&lt;/font&gt;" style="html=1;verticalAlign=bottom;endArrow=open;dashed=1;endSize=8;" edge="1" parent="1">
          <mxGeometry relative="1" as="geometry">
            <mxPoint x="520" y="1570" as="sourcePoint" />
            <mxPoint x="325" y="1570" as="targetPoint" />
          </mxGeometry>
        </mxCell>
        <mxCell id="RD95_QjH9YQ41FcIWs7q-20" value="&lt;font style=&quot;font-size: 14px&quot;&gt;5.Hiển thị màn hình thống kê&amp;nbsp;&lt;br&gt;doanh số&lt;/font&gt;" style="html=1;verticalAlign=bottom;endArrow=open;dashed=1;endSize=8;" edge="1" parent="1" target="RD95_QjH9YQ41FcIWs7q-7">
          <mxGeometry relative="1" as="geometry">
            <mxPoint x="324" y="1589" as="sourcePoint" />
            <mxPoint x="124" y="1589" as="targetPoint" />
          </mxGeometry>
        </mxCell>
        <mxCell id="RD95_QjH9YQ41FcIWs7q-21" value="&lt;font style=&quot;font-size: 14px&quot;&gt;6.Hiển thị màn hình thống kê&amp;nbsp;&lt;br&gt;các sản phẩm&lt;/font&gt;" style="html=1;verticalAlign=bottom;endArrow=open;dashed=1;endSize=8;" edge="1" parent="1" target="RD95_QjH9YQ41FcIWs7q-7">
          <mxGeometry relative="1" as="geometry">
            <mxPoint x="327" y="1640" as="sourcePoint" />
            <mxPoint x="129.99999999999997" y="1640.44" as="targetPoint" />
          </mxGeometry>
        </mxCell>
        <mxCell id="RD95_QjH9YQ41FcIWs7q-22" value="&lt;font style=&quot;font-size: 14px&quot;&gt;7.Hiển thị màn hình thống kê&amp;nbsp;&lt;br&gt;khách hàng mới&lt;/font&gt;" style="html=1;verticalAlign=bottom;endArrow=open;dashed=1;endSize=8;" edge="1" parent="1">
          <mxGeometry relative="1" as="geometry">
            <mxPoint x="327" y="1710" as="sourcePoint" />
            <mxPoint x="120" y="1710" as="targetPoint" />
          </mxGeometry>
        </mxCell>
        <mxCell id="RD95_QjH9YQ41FcIWs7q-23" value="&lt;font style=&quot;font-size: 14px&quot;&gt;8.Hiển thị màn hình thống kê&amp;nbsp;&lt;br&gt;sản phẩm&amp;nbsp; được yêu thích&lt;/font&gt;" style="html=1;verticalAlign=bottom;endArrow=open;dashed=1;endSize=8;" edge="1" parent="1">
          <mxGeometry relative="1" as="geometry">
            <mxPoint x="327" y="1774" as="sourcePoint" />
            <mxPoint x="120" y="1774" as="targetPoint" />
          </mxGeometry>
        </mxCell>
        <mxCell id="RD95_QjH9YQ41FcIWs7q-25" value="&lt;span style=&quot;font-size: 14px&quot;&gt;9.Yêu cầu xuất file thống kê&lt;/span&gt;" style="html=1;verticalAlign=bottom;startArrow=circle;startFill=1;endArrow=open;startSize=6;endSize=8;" edge="1" parent="1" target="RD95_QjH9YQ41FcIWs7q-2">
          <mxGeometry width="80" relative="1" as="geometry">
            <mxPoint x="120" y="1840" as="sourcePoint" />
            <mxPoint x="200" y="1840" as="targetPoint" />
          </mxGeometry>
        </mxCell>
        <mxCell id="RD95_QjH9YQ41FcIWs7q-26" value="&lt;font size=&quot;3&quot;&gt;10.Xử lý xuất file&lt;/font&gt;" style="html=1;verticalAlign=bottom;startArrow=circle;startFill=1;endArrow=open;startSize=6;endSize=8;" edge="1" parent="1" target="RD95_QjH9YQ41FcIWs7q-4">
          <mxGeometry width="80" relative="1" as="geometry">
            <mxPoint x="323" y="1880" as="sourcePoint" />
            <mxPoint x="512.5" y="1880" as="targetPoint" />
          </mxGeometry>
        </mxCell>
        <mxCell id="RD95_QjH9YQ41FcIWs7q-27" value="&lt;font size=&quot;3&quot;&gt;10.Xử lý xuất file&lt;/font&gt;" style="html=1;verticalAlign=bottom;startArrow=circle;startFill=1;endArrow=open;startSize=6;endSize=8;" edge="1" parent="1" target="RD95_QjH9YQ41FcIWs7q-3">
          <mxGeometry width="80" relative="1" as="geometry">
            <mxPoint x="519.9999999999999" y="1910" as="sourcePoint" />
            <mxPoint x="716.5" y="1910" as="targetPoint" />
          </mxGeometry>
        </mxCell>
        <mxCell id="RD95_QjH9YQ41FcIWs7q-28" value="&lt;font size=&quot;3&quot;&gt;11.Xuất file thống kê&lt;/font&gt;" style="html=1;verticalAlign=bottom;endArrow=open;dashed=1;endSize=8;" edge="1" parent="1" target="RD95_QjH9YQ41FcIWs7q-4">
          <mxGeometry relative="1" as="geometry">
            <mxPoint x="740" y="1960" as="sourcePoint" />
            <mxPoint x="530" y="1960" as="targetPoint" />
          </mxGeometry>
        </mxCell>
        <mxCell id="RD95_QjH9YQ41FcIWs7q-29" value="&lt;font size=&quot;3&quot;&gt;12.Xuất file thống kê&lt;/font&gt;" style="html=1;verticalAlign=bottom;endArrow=open;dashed=1;endSize=8;" edge="1" parent="1" target="RD95_QjH9YQ41FcIWs7q-2">
          <mxGeometry x="0.0221" relative="1" as="geometry">
            <mxPoint x="520" y="1990" as="sourcePoint" />
            <mxPoint x="410" y="2060" as="targetPoint" />
            <Array as="points">
              <mxPoint x="370" y="1990" />
            </Array>
            <mxPoint as="offset" />
          </mxGeometry>
        </mxCell>
        <mxCell id="RD95_QjH9YQ41FcIWs7q-31" value="&lt;font style=&quot;font-size: 14px&quot;&gt;13.Thông báo file được&lt;br&gt;&amp;nbsp;xuất thành cống hay chưa&lt;/font&gt;" style="html=1;verticalAlign=bottom;endArrow=open;dashed=1;endSize=8;entryX=0.4;entryY=0.986;entryDx=0;entryDy=0;entryPerimeter=0;" edge="1" parent="1">
          <mxGeometry relative="1" as="geometry">
            <mxPoint x="320" y="2020.08" as="sourcePoint" />
            <mxPoint x="120" y="2020" as="targetPoint" />
          </mxGeometry>
        </mxCell>
        <mxCell id="RD95_QjH9YQ41FcIWs7q-33" value="&lt;font style=&quot;font-size: 14px&quot;&gt;Sequence Diagram Thống Kê&lt;/font&gt;" style="shape=umlFrame;whiteSpace=wrap;html=1;width=240;height=30;" vertex="1" parent="1">
          <mxGeometry x="70" y="1140" width="720" height="960" as="geometry" />
        </mxCell>
      </root>
    </mxGraphModel>
  </diagram>
</mxfile>
